<?xml version="1.0" standalone="no"?>
 <!DOCTYPE svg PUBLIC "-//W3C//DTD SVG 1.1//EN" 
 "http://www.w3.org/Graphics/SVG/1.1/DTD/svg11.dtd"> 
<svg
  xmlns:svg="http://www.w3.org/2000/svg"
  xmlns="http://www.w3.org/2000/svg"
  xmlns:xlink="http://www.w3.org/1999/xlink"
  version="1.1"
  width="21.747480cm" height="12.999720cm" viewBox="0 0 217474800 129997200">
<title>SVG Picture created as midi controller-brd.svg date 2022/05/17 17:26:08 </title>
  <desc>Picture generated by PCBNEW </desc>
<g style="fill:#000000; fill-opacity:1.000000;stroke:#000000; stroke-opacity:1.000000;
stroke-linecap:round; stroke-linejoin:round;"
 transform="translate(0 0) scale(1 1)">
</g>
<g style="fill:#000000; fill-opacity:0.0; 
stroke:#000000; stroke-width:0.000000; stroke-opacity:1; 
stroke-linecap:round; stroke-linejoin:round;">
</g>
<g style="fill:#000000; fill-opacity:0.0; 
stroke:#000000; stroke-width:150000.000000; stroke-opacity:1; 
stroke-linecap:round; stroke-linejoin:round;">
<g transform="rotate(-90.000000 20210000.000000 82458332.000000)">
<text x="20210000.000000" y="82958332.000000"
textLength="3911905.000000" font-size="1333333.000000" lengthAdjust="spacingAndGlyphs"
text-anchor="middle" opacity="0">RV10</text>
</g>
<g class="stroked-text"><desc>RV10</desc>
<path d="M20662380 83529760
L20186190 83863093
" />
<path d="M20662380 84101189
L19662380 84101189
L19662380 83720236
L19710000 83624998
L19757619 83577379
L19852857 83529760
L19995714 83529760
L20090952 83577379
L20138571 83624998
L20186190 83720236
L20186190 84101189
" />
<path d="M19662380 83244046
L20662380 82910712
L19662380 82577379
" />
<path d="M20662380 81720236
L20662380 82291665
" />
<path d="M20662380 82005951
L19662380 82005951
L19805238 82101189
L19900476 82196427
L19948095 82291665
" />
<path d="M19662380 81101189
L19662380 81005951
L19710000 80910712
L19757619 80863093
L19852857 80815474
L20043333 80767855
L20281428 80767855
L20471904 80815474
L20567142 80863093
L20614761 80910712
L20662380 81005951
L20662380 81101189
L20614761 81196427
L20567142 81244046
L20471904 81291665
L20281428 81339284
L20043333 81339284
L19852857 81291665
L19757619 81244046
L19710000 81196427
L19662380 81101189
" />
</g><g transform="rotate(-90.000000 65930000.000000 65547499.000000)">
<text x="65930000.000000" y="66047499.000000"
textLength="3004524.000000" font-size="1333333.000000" lengthAdjust="spacingAndGlyphs"
text-anchor="middle" opacity="0">RV9</text>
</g>
<g class="stroked-text"><desc>RV9</desc>
<path d="M66382380 66142737
L65906190 66476070
" />
<path d="M66382380 66714165
L65382380 66714165
L65382380 66333213
L65430000 66237975
L65477619 66190356
L65572857 66142737
L65715714 66142737
L65810952 66190356
L65858571 66237975
L65906190 66333213
L65906190 66714165
" />
<path d="M65382380 65857022
L66382380 65523689
L65382380 65190356
" />
<path d="M66382380 64809403
L66382380 64618927
L66334761 64523689
L66287142 64476070
L66144285 64380832
L65953809 64333213
L65572857 64333213
L65477619 64380832
L65430000 64428451
L65382380 64523689
L65382380 64714165
L65430000 64809403
L65477619 64857022
L65572857 64904641
L65810952 64904641
L65906190 64857022
L65953809 64809403
L66001428 64714165
L66001428 64523689
L65953809 64428451
L65906190 64380832
L65810952 64333213
" />
</g><g transform="rotate(-90.000000 164776426.000000 36980000.000000)">
<text x="164776426.000000" y="37480000.000000"
textLength="3956905.000000" font-size="1333333.000000" lengthAdjust="spacingAndGlyphs"
text-anchor="middle" opacity="0">RV21</text>
</g>
<g class="stroked-text"><desc>RV21</desc>
<path d="M165228806 38051428
L164752616 38384761
" />
<path d="M165228806 38622857
L164228806 38622857
L164228806 38241904
L164276426 38146666
L164324045 38099047
L164419283 38051428
L164562140 38051428
L164657378 38099047
L164704997 38146666
L164752616 38241904
L164752616 38622857
" />
<path d="M164228806 37765714
L165228806 37432380
L164228806 37099047
" />
<path d="M164324045 36813333
L164276426 36765714
L164228806 36670476
L164228806 36432380
L164276426 36337142
L164324045 36289523
L164419283 36241904
L164514521 36241904
L164657378 36289523
L165228806 36860952
L165228806 36241904
" />
<path d="M165228806 35289523
L165228806 35860952
" />
<path d="M165228806 35575238
L164228806 35575238
L164371664 35670476
L164466902 35765714
L164514521 35860952
" />
</g><g transform="rotate(-90.000000 38625000.000000 82458332.000000)">
<text x="38625000.000000" y="82958332.000000"
textLength="3956905.000000" font-size="1333333.000000" lengthAdjust="spacingAndGlyphs"
text-anchor="middle" opacity="0">RV11</text>
</g>
<g class="stroked-text"><desc>RV11</desc>
<path d="M39077380 83529760
L38601190 83863093
" />
<path d="M39077380 84101189
L38077380 84101189
L38077380 83720236
L38125000 83624998
L38172619 83577379
L38267857 83529760
L38410714 83529760
L38505952 83577379
L38553571 83624998
L38601190 83720236
L38601190 84101189
" />
<path d="M38077380 83244046
L39077380 82910712
L38077380 82577379
" />
<path d="M39077380 81720236
L39077380 82291665
" />
<path d="M39077380 82005951
L38077380 82005951
L38220238 82101189
L38315476 82196427
L38363095 82291665
" />
<path d="M39077380 80767855
L39077380 81339284
" />
<path d="M39077380 81053570
L38077380 81053570
L38220238 81148808
L38315476 81244046
L38363095 81339284
" />
</g><g transform="rotate(-90.000000 195632144.000000 36980000.000000)">
<text x="195632144.000000" y="37480000.000000"
textLength="3956905.000000" font-size="1333333.000000" lengthAdjust="spacingAndGlyphs"
text-anchor="middle" opacity="0">RV23</text>
</g>
<g class="stroked-text"><desc>RV23</desc>
<path d="M196084524 38051428
L195608334 38384761
" />
<path d="M196084524 38622857
L195084524 38622857
L195084524 38241904
L195132144 38146666
L195179763 38099047
L195275001 38051428
L195417858 38051428
L195513096 38099047
L195560715 38146666
L195608334 38241904
L195608334 38622857
" />
<path d="M195084524 37765714
L196084524 37432380
L195084524 37099047
" />
<path d="M195179763 36813333
L195132144 36765714
L195084524 36670476
L195084524 36432380
L195132144 36337142
L195179763 36289523
L195275001 36241904
L195370239 36241904
L195513096 36289523
L196084524 36860952
L196084524 36241904
" />
<path d="M195084524 35908571
L195084524 35289523
L195465477 35622857
L195465477 35480000
L195513096 35384761
L195560715 35337142
L195655953 35289523
L195894048 35289523
L195989286 35337142
L196036905 35384761
L196084524 35480000
L196084524 35765714
L196036905 35860952
L195989286 35908571
" />
</g><g transform="rotate(-90.000000 56405000.000000 48636666.000000)">
<text x="56405000.000000" y="49136666.000000"
textLength="3004524.000000" font-size="1333333.000000" lengthAdjust="spacingAndGlyphs"
text-anchor="middle" opacity="0">RV5</text>
</g>
<g class="stroked-text"><desc>RV5</desc>
<path d="M56857380 49231904
L56381190 49565237
" />
<path d="M56857380 49803332
L55857380 49803332
L55857380 49422380
L55905000 49327142
L55952619 49279523
L56047857 49231904
L56190714 49231904
L56285952 49279523
L56333571 49327142
L56381190 49422380
L56381190 49803332
" />
<path d="M55857380 48946189
L56857380 48612856
L55857380 48279523
" />
<path d="M55857380 47469999
L55857380 47946189
L56333571 47993808
L56285952 47946189
L56238333 47850951
L56238333 47612856
L56285952 47517618
L56333571 47469999
L56428809 47422380
L56666904 47422380
L56762142 47469999
L56809761 47517618
L56857380 47612856
L56857380 47850951
L56809761 47946189
L56762142 47993808
" />
</g><g transform="rotate(-90.000000 133920714.000000 36980000.000000)">
<text x="133920714.000000" y="37480000.000000"
textLength="3956905.000000" font-size="1333333.000000" lengthAdjust="spacingAndGlyphs"
text-anchor="middle" opacity="0">RV19</text>
</g>
<g class="stroked-text"><desc>RV19</desc>
<path d="M134373094 38051428
L133896904 38384761
" />
<path d="M134373094 38622857
L133373094 38622857
L133373094 38241904
L133420714 38146666
L133468333 38099047
L133563571 38051428
L133706428 38051428
L133801666 38099047
L133849285 38146666
L133896904 38241904
L133896904 38622857
" />
<path d="M133373094 37765714
L134373094 37432380
L133373094 37099047
" />
<path d="M134373094 36241904
L134373094 36813333
" />
<path d="M134373094 36527619
L133373094 36527619
L133515952 36622857
L133611190 36718095
L133658809 36813333
" />
<path d="M134373094 35765714
L134373094 35575238
L134325475 35480000
L134277856 35432380
L134134999 35337142
L133944523 35289523
L133563571 35289523
L133468333 35337142
L133420714 35384761
L133373094 35480000
L133373094 35670476
L133420714 35765714
L133468333 35813333
L133563571 35860952
L133801666 35860952
L133896904 35813333
L133944523 35765714
L133992142 35670476
L133992142 35480000
L133944523 35384761
L133896904 35337142
L133801666 35289523
" />
</g><g transform="rotate(-90.000000 38625000.000000 48636666.000000)">
<text x="38625000.000000" y="49136666.000000"
textLength="3004524.000000" font-size="1333333.000000" lengthAdjust="spacingAndGlyphs"
text-anchor="middle" opacity="0">RV4</text>
</g>
<g class="stroked-text"><desc>RV4</desc>
<path d="M39077380 49231904
L38601190 49565237
" />
<path d="M39077380 49803332
L38077380 49803332
L38077380 49422380
L38125000 49327142
L38172619 49279523
L38267857 49231904
L38410714 49231904
L38505952 49279523
L38553571 49327142
L38601190 49422380
L38601190 49803332
" />
<path d="M38077380 48946189
L39077380 48612856
L38077380 48279523
" />
<path d="M38410714 47517618
L39077380 47517618
" />
<path d="M38029761 47755713
L38744047 47993808
L38744047 47374761
" />
</g><g transform="rotate(-90.000000 147288570.000000 83380000.000000)">
<text x="147288570.000000" y="83880000.000000"
textLength="3956905.000000" font-size="1333333.000000" lengthAdjust="spacingAndGlyphs"
text-anchor="middle" opacity="0">RV27</text>
</g>
<g class="stroked-text"><desc>RV27</desc>
<path d="M147740950 84451428
L147264760 84784761
" />
<path d="M147740950 85022857
L146740950 85022857
L146740950 84641904
L146788570 84546666
L146836189 84499047
L146931427 84451428
L147074284 84451428
L147169522 84499047
L147217141 84546666
L147264760 84641904
L147264760 85022857
" />
<path d="M146740950 84165714
L147740950 83832380
L146740950 83499047
" />
<path d="M146836189 83213333
L146788570 83165714
L146740950 83070476
L146740950 82832380
L146788570 82737142
L146836189 82689523
L146931427 82641904
L147026665 82641904
L147169522 82689523
L147740950 83260952
L147740950 82641904
" />
<path d="M146740950 82308571
L146740950 81641904
L147740950 82070476
" />
</g><g transform="rotate(-90.000000 101005002.000000 83380000.000000)">
<text x="101005002.000000" y="83880000.000000"
textLength="3956905.000000" font-size="1333333.000000" lengthAdjust="spacingAndGlyphs"
text-anchor="middle" opacity="0">RV24</text>
</g>
<g class="stroked-text"><desc>RV24</desc>
<path d="M101457382 84451428
L100981192 84784761
" />
<path d="M101457382 85022857
L100457382 85022857
L100457382 84641904
L100505002 84546666
L100552621 84499047
L100647859 84451428
L100790716 84451428
L100885954 84499047
L100933573 84546666
L100981192 84641904
L100981192 85022857
" />
<path d="M100457382 84165714
L101457382 83832380
L100457382 83499047
" />
<path d="M100552621 83213333
L100505002 83165714
L100457382 83070476
L100457382 82832380
L100505002 82737142
L100552621 82689523
L100647859 82641904
L100743097 82641904
L100885954 82689523
L101457382 83260952
L101457382 82641904
" />
<path d="M100790716 81784761
L101457382 81784761
" />
<path d="M100409763 82022857
L101124049 82260952
L101124049 81641904
" />
</g><g transform="rotate(-90.000000 180204282.000000 36980000.000000)">
<text x="180204282.000000" y="37480000.000000"
textLength="3956905.000000" font-size="1333333.000000" lengthAdjust="spacingAndGlyphs"
text-anchor="middle" opacity="0">RV22</text>
</g>
<g class="stroked-text"><desc>RV22</desc>
<path d="M180656662 38051428
L180180472 38384761
" />
<path d="M180656662 38622857
L179656662 38622857
L179656662 38241904
L179704282 38146666
L179751901 38099047
L179847139 38051428
L179989996 38051428
L180085234 38099047
L180132853 38146666
L180180472 38241904
L180180472 38622857
" />
<path d="M179656662 37765714
L180656662 37432380
L179656662 37099047
" />
<path d="M179751901 36813333
L179704282 36765714
L179656662 36670476
L179656662 36432380
L179704282 36337142
L179751901 36289523
L179847139 36241904
L179942377 36241904
L180085234 36289523
L180656662 36860952
L180656662 36241904
" />
<path d="M179751901 35860952
L179704282 35813333
L179656662 35718095
L179656662 35480000
L179704282 35384761
L179751901 35337142
L179847139 35289523
L179942377 35289523
L180085234 35337142
L180656662 35908571
L180656662 35289523
" />
</g><g transform="rotate(-90.000000 56405000.000000 82458332.000000)">
<text x="56405000.000000" y="82958332.000000"
textLength="3956905.000000" font-size="1333333.000000" lengthAdjust="spacingAndGlyphs"
text-anchor="middle" opacity="0">RV12</text>
</g>
<g class="stroked-text"><desc>RV12</desc>
<path d="M56857380 83529760
L56381190 83863093
" />
<path d="M56857380 84101189
L55857380 84101189
L55857380 83720236
L55905000 83624998
L55952619 83577379
L56047857 83529760
L56190714 83529760
L56285952 83577379
L56333571 83624998
L56381190 83720236
L56381190 84101189
" />
<path d="M55857380 83244046
L56857380 82910712
L55857380 82577379
" />
<path d="M56857380 81720236
L56857380 82291665
" />
<path d="M56857380 82005951
L55857380 82005951
L56000238 82101189
L56095476 82196427
L56143095 82291665
" />
<path d="M55952619 81339284
L55905000 81291665
L55857380 81196427
L55857380 80958332
L55905000 80863093
L55952619 80815474
L56047857 80767855
L56143095 80767855
L56285952 80815474
L56857380 81386903
L56857380 80767855
" />
</g><g transform="rotate(-90.000000 131860714.000000 83380000.000000)">
<text x="131860714.000000" y="83880000.000000"
textLength="3956905.000000" font-size="1333333.000000" lengthAdjust="spacingAndGlyphs"
text-anchor="middle" opacity="0">RV26</text>
</g>
<g class="stroked-text"><desc>RV26</desc>
<path d="M132313094 84451428
L131836904 84784761
" />
<path d="M132313094 85022857
L131313094 85022857
L131313094 84641904
L131360714 84546666
L131408333 84499047
L131503571 84451428
L131646428 84451428
L131741666 84499047
L131789285 84546666
L131836904 84641904
L131836904 85022857
" />
<path d="M131313094 84165714
L132313094 83832380
L131313094 83499047
" />
<path d="M131408333 83213333
L131360714 83165714
L131313094 83070476
L131313094 82832380
L131360714 82737142
L131408333 82689523
L131503571 82641904
L131598809 82641904
L131741666 82689523
L132313094 83260952
L132313094 82641904
" />
<path d="M131313094 81784761
L131313094 81975238
L131360714 82070476
L131408333 82118095
L131551190 82213333
L131741666 82260952
L132122618 82260952
L132217856 82213333
L132265475 82165714
L132313094 82070476
L132313094 81880000
L132265475 81784761
L132217856 81737142
L132122618 81689523
L131884523 81689523
L131789285 81737142
L131741666 81784761
L131694047 81880000
L131694047 82070476
L131741666 82165714
L131789285 82213333
L131884523 82260952
" />
</g><g transform="rotate(-90.000000 103655002.000000 36345000.000000)">
<text x="103655002.000000" y="36845000.000000"
textLength="3956905.000000" font-size="1333333.000000" lengthAdjust="spacingAndGlyphs"
text-anchor="middle" opacity="0">RV17</text>
</g>
<g class="stroked-text"><desc>RV17</desc>
<path d="M104107382 37416428
L103631192 37749761
" />
<path d="M104107382 37987857
L103107382 37987857
L103107382 37606904
L103155002 37511666
L103202621 37464047
L103297859 37416428
L103440716 37416428
L103535954 37464047
L103583573 37511666
L103631192 37606904
L103631192 37987857
" />
<path d="M103107382 37130714
L104107382 36797380
L103107382 36464047
" />
<path d="M104107382 35606904
L104107382 36178333
" />
<path d="M104107382 35892619
L103107382 35892619
L103250240 35987857
L103345478 36083095
L103393097 36178333
" />
<path d="M103107382 35273571
L103107382 34606904
L104107382 35035476
" />
</g><g transform="rotate(-90.000000 38625000.000000 15065000.000000)">
<text x="38625000.000000" y="15565000.000000"
textLength="3004524.000000" font-size="1333333.000000" lengthAdjust="spacingAndGlyphs"
text-anchor="middle" opacity="0">RV0</text>
</g>
<g class="stroked-text"><desc>RV0</desc>
<path d="M39077380 15660238
L38601190 15993571
" />
<path d="M39077380 16231666
L38077380 16231666
L38077380 15850714
L38125000 15755476
L38172619 15707857
L38267857 15660238
L38410714 15660238
L38505952 15707857
L38553571 15755476
L38601190 15850714
L38601190 16231666
" />
<path d="M38077380 15374523
L39077380 15041190
L38077380 14707857
" />
<path d="M38077380 14184047
L38077380 14088809
L38125000 13993571
L38172619 13945952
L38267857 13898333
L38458333 13850714
L38696428 13850714
L38886904 13898333
L38982142 13945952
L39029761 13993571
L39077380 14088809
L39077380 14184047
L39029761 14279285
L38982142 14326904
L38886904 14374523
L38696428 14422142
L38458333 14422142
L38267857 14374523
L38172619 14326904
L38125000 14279285
L38077380 14184047
" />
</g><g transform="rotate(-90.000000 20210000.000000 48636666.000000)">
<text x="20210000.000000" y="49136666.000000"
textLength="3004524.000000" font-size="1333333.000000" lengthAdjust="spacingAndGlyphs"
text-anchor="middle" opacity="0">RV3</text>
</g>
<g class="stroked-text"><desc>RV3</desc>
<path d="M20662380 49231904
L20186190 49565237
" />
<path d="M20662380 49803332
L19662380 49803332
L19662380 49422380
L19710000 49327142
L19757619 49279523
L19852857 49231904
L19995714 49231904
L20090952 49279523
L20138571 49327142
L20186190 49422380
L20186190 49803332
" />
<path d="M19662380 48946189
L20662380 48612856
L19662380 48279523
" />
<path d="M19662380 48041427
L19662380 47422380
L20043333 47755713
L20043333 47612856
L20090952 47517618
L20138571 47469999
L20233809 47422380
L20471904 47422380
L20567142 47469999
L20614761 47517618
L20662380 47612856
L20662380 47898570
L20614761 47993808
L20567142 48041427
" />
</g><g transform="rotate(-90.000000 149348570.000000 36980000.000000)">
<text x="149348570.000000" y="37480000.000000"
textLength="3956905.000000" font-size="1333333.000000" lengthAdjust="spacingAndGlyphs"
text-anchor="middle" opacity="0">RV20</text>
</g>
<g class="stroked-text"><desc>RV20</desc>
<path d="M149800950 38051428
L149324760 38384761
" />
<path d="M149800950 38622857
L148800950 38622857
L148800950 38241904
L148848570 38146666
L148896189 38099047
L148991427 38051428
L149134284 38051428
L149229522 38099047
L149277141 38146666
L149324760 38241904
L149324760 38622857
" />
<path d="M148800950 37765714
L149800950 37432380
L148800950 37099047
" />
<path d="M148896189 36813333
L148848570 36765714
L148800950 36670476
L148800950 36432380
L148848570 36337142
L148896189 36289523
L148991427 36241904
L149086665 36241904
L149229522 36289523
L149800950 36860952
L149800950 36241904
" />
<path d="M148800950 35622857
L148800950 35527619
L148848570 35432380
L148896189 35384761
L148991427 35337142
L149181903 35289523
L149419998 35289523
L149610474 35337142
L149705712 35384761
L149753331 35432380
L149800950 35527619
L149800950 35622857
L149753331 35718095
L149705712 35765714
L149610474 35813333
L149419998 35860952
L149181903 35860952
L148991427 35813333
L148896189 35765714
L148848570 35718095
L148800950 35622857
" />
</g><g transform="rotate(-90.000000 48150000.000000 65547499.000000)">
<text x="48150000.000000" y="66047499.000000"
textLength="3004524.000000" font-size="1333333.000000" lengthAdjust="spacingAndGlyphs"
text-anchor="middle" opacity="0">RV8</text>
</g>
<g class="stroked-text"><desc>RV8</desc>
<path d="M48602380 66142737
L48126190 66476070
" />
<path d="M48602380 66714165
L47602380 66714165
L47602380 66333213
L47650000 66237975
L47697619 66190356
L47792857 66142737
L47935714 66142737
L48030952 66190356
L48078571 66237975
L48126190 66333213
L48126190 66714165
" />
<path d="M47602380 65857022
L48602380 65523689
L47602380 65190356
" />
<path d="M48030952 64714165
L47983333 64809403
L47935714 64857022
L47840476 64904641
L47792857 64904641
L47697619 64857022
L47650000 64809403
L47602380 64714165
L47602380 64523689
L47650000 64428451
L47697619 64380832
L47792857 64333213
L47840476 64333213
L47935714 64380832
L47983333 64428451
L48030952 64523689
L48030952 64714165
L48078571 64809403
L48126190 64857022
L48221428 64904641
L48411904 64904641
L48507142 64857022
L48554761 64809403
L48602380 64714165
L48602380 64523689
L48554761 64428451
L48507142 64380832
L48411904 64333213
L48221428 64333213
L48126190 64380832
L48078571 64428451
L48030952 64523689
" />
</g><g transform="rotate(-90.000000 38625000.000000 116030000.000000)">
<text x="38625000.000000" y="116530000.000000"
textLength="3956905.000000" font-size="1333333.000000" lengthAdjust="spacingAndGlyphs"
text-anchor="middle" opacity="0">RV15</text>
</g>
<g class="stroked-text"><desc>RV15</desc>
<path d="M39077380 117101428
L38601190 117434761
" />
<path d="M39077380 117672857
L38077380 117672857
L38077380 117291904
L38125000 117196666
L38172619 117149047
L38267857 117101428
L38410714 117101428
L38505952 117149047
L38553571 117196666
L38601190 117291904
L38601190 117672857
" />
<path d="M38077380 116815714
L39077380 116482380
L38077380 116149047
" />
<path d="M39077380 115291904
L39077380 115863333
" />
<path d="M39077380 115577619
L38077380 115577619
L38220238 115672857
L38315476 115768095
L38363095 115863333
" />
<path d="M38077380 114387142
L38077380 114863333
L38553571 114910952
L38505952 114863333
L38458333 114768095
L38458333 114530000
L38505952 114434761
L38553571 114387142
L38648809 114339523
L38886904 114339523
L38982142 114387142
L39029761 114434761
L39077380 114530000
L39077380 114768095
L39029761 114863333
L38982142 114910952
" />
</g><g transform="rotate(-90.000000 29735000.000000 31725833.000000)">
<text x="29735000.000000" y="32225833.000000"
textLength="3004524.000000" font-size="1333333.000000" lengthAdjust="spacingAndGlyphs"
text-anchor="middle" opacity="0">RV1</text>
</g>
<g class="stroked-text"><desc>RV1</desc>
<path d="M30187380 32321071
L29711190 32654404
" />
<path d="M30187380 32892499
L29187380 32892499
L29187380 32511547
L29235000 32416309
L29282619 32368690
L29377857 32321071
L29520714 32321071
L29615952 32368690
L29663571 32416309
L29711190 32511547
L29711190 32892499
" />
<path d="M29187380 32035356
L30187380 31702023
L29187380 31368690
" />
<path d="M30187380 30511547
L30187380 31082975
" />
<path d="M30187380 30797261
L29187380 30797261
L29330238 30892499
L29425476 30987737
L29473095 31082975
" />
</g><g transform="rotate(-90.000000 162716426.000000 83380000.000000)">
<text x="162716426.000000" y="83880000.000000"
textLength="3956905.000000" font-size="1333333.000000" lengthAdjust="spacingAndGlyphs"
text-anchor="middle" opacity="0">RV28</text>
</g>
<g class="stroked-text"><desc>RV28</desc>
<path d="M163168806 84451428
L162692616 84784761
" />
<path d="M163168806 85022857
L162168806 85022857
L162168806 84641904
L162216426 84546666
L162264045 84499047
L162359283 84451428
L162502140 84451428
L162597378 84499047
L162644997 84546666
L162692616 84641904
L162692616 85022857
" />
<path d="M162168806 84165714
L163168806 83832380
L162168806 83499047
" />
<path d="M162264045 83213333
L162216426 83165714
L162168806 83070476
L162168806 82832380
L162216426 82737142
L162264045 82689523
L162359283 82641904
L162454521 82641904
L162597378 82689523
L163168806 83260952
L163168806 82641904
" />
<path d="M162597378 82070476
L162549759 82165714
L162502140 82213333
L162406902 82260952
L162359283 82260952
L162264045 82213333
L162216426 82165714
L162168806 82070476
L162168806 81880000
L162216426 81784761
L162264045 81737142
L162359283 81689523
L162406902 81689523
L162502140 81737142
L162549759 81784761
L162597378 81880000
L162597378 82070476
L162644997 82165714
L162692616 82213333
L162787854 82260952
L162978330 82260952
L163073568 82213333
L163121187 82165714
L163168806 82070476
L163168806 81880000
L163121187 81784761
L163073568 81737142
L162978330 81689523
L162787854 81689523
L162692616 81737142
L162644997 81784761
L162597378 81880000
" />
</g><g transform="rotate(-90.000000 48150000.000000 31725833.000000)">
<text x="48150000.000000" y="32225833.000000"
textLength="3004524.000000" font-size="1333333.000000" lengthAdjust="spacingAndGlyphs"
text-anchor="middle" opacity="0">RV2</text>
</g>
<g class="stroked-text"><desc>RV2</desc>
<path d="M48602380 32321071
L48126190 32654404
" />
<path d="M48602380 32892499
L47602380 32892499
L47602380 32511547
L47650000 32416309
L47697619 32368690
L47792857 32321071
L47935714 32321071
L48030952 32368690
L48078571 32416309
L48126190 32511547
L48126190 32892499
" />
<path d="M47602380 32035356
L48602380 31702023
L47602380 31368690
" />
<path d="M47697619 31082975
L47650000 31035356
L47602380 30940118
L47602380 30702023
L47650000 30606785
L47697619 30559166
L47792857 30511547
L47888095 30511547
L48030952 30559166
L48602380 31130594
L48602380 30511547
" />
</g><g transform="rotate(-90.000000 178144282.000000 83380000.000000)">
<text x="178144282.000000" y="83880000.000000"
textLength="3956905.000000" font-size="1333333.000000" lengthAdjust="spacingAndGlyphs"
text-anchor="middle" opacity="0">RV29</text>
</g>
<g class="stroked-text"><desc>RV29</desc>
<path d="M178596662 84451428
L178120472 84784761
" />
<path d="M178596662 85022857
L177596662 85022857
L177596662 84641904
L177644282 84546666
L177691901 84499047
L177787139 84451428
L177929996 84451428
L178025234 84499047
L178072853 84546666
L178120472 84641904
L178120472 85022857
" />
<path d="M177596662 84165714
L178596662 83832380
L177596662 83499047
" />
<path d="M177691901 83213333
L177644282 83165714
L177596662 83070476
L177596662 82832380
L177644282 82737142
L177691901 82689523
L177787139 82641904
L177882377 82641904
L178025234 82689523
L178596662 83260952
L178596662 82641904
" />
<path d="M178596662 82165714
L178596662 81975238
L178549043 81880000
L178501424 81832380
L178358567 81737142
L178168091 81689523
L177787139 81689523
L177691901 81737142
L177644282 81784761
L177596662 81880000
L177596662 82070476
L177644282 82165714
L177691901 82213333
L177787139 82260952
L178025234 82260952
L178120472 82213333
L178168091 82165714
L178215710 82070476
L178215710 81880000
L178168091 81784761
L178120472 81737142
L178025234 81689523
" />
</g><g transform="rotate(-90.000000 209000000.000000 83380000.000000)">
<text x="209000000.000000" y="83880000.000000"
textLength="3956905.000000" font-size="1333333.000000" lengthAdjust="spacingAndGlyphs"
text-anchor="middle" opacity="0">RV31</text>
</g>
<g class="stroked-text"><desc>RV31</desc>
<path d="M209452380 84451428
L208976190 84784761
" />
<path d="M209452380 85022857
L208452380 85022857
L208452380 84641904
L208500000 84546666
L208547619 84499047
L208642857 84451428
L208785714 84451428
L208880952 84499047
L208928571 84546666
L208976190 84641904
L208976190 85022857
" />
<path d="M208452380 84165714
L209452380 83832380
L208452380 83499047
" />
<path d="M208452380 83260952
L208452380 82641904
L208833333 82975238
L208833333 82832380
L208880952 82737142
L208928571 82689523
L209023809 82641904
L209261904 82641904
L209357142 82689523
L209404761 82737142
L209452380 82832380
L209452380 83118095
L209404761 83213333
L209357142 83260952
" />
<path d="M209452380 81689523
L209452380 82260952
" />
<path d="M209452380 81975238
L208452380 81975238
L208595238 82070476
L208690476 82165714
L208738095 82260952
" />
</g><g transform="rotate(-90.000000 29735000.000000 99369165.000000)">
<text x="29735000.000000" y="99869165.000000"
textLength="3956905.000000" font-size="1333333.000000" lengthAdjust="spacingAndGlyphs"
text-anchor="middle" opacity="0">RV13</text>
</g>
<g class="stroked-text"><desc>RV13</desc>
<path d="M30187380 100440593
L29711190 100773926
" />
<path d="M30187380 101012022
L29187380 101012022
L29187380 100631069
L29235000 100535831
L29282619 100488212
L29377857 100440593
L29520714 100440593
L29615952 100488212
L29663571 100535831
L29711190 100631069
L29711190 101012022
" />
<path d="M29187380 100154879
L30187380 99821545
L29187380 99488212
" />
<path d="M30187380 98631069
L30187380 99202498
" />
<path d="M30187380 98916784
L29187380 98916784
L29330238 99012022
L29425476 99107260
L29473095 99202498
" />
<path d="M29187380 98297736
L29187380 97678688
L29568333 98012022
L29568333 97869165
L29615952 97773926
L29663571 97726307
L29758809 97678688
L29996904 97678688
L30092142 97726307
L30139761 97773926
L30187380 97869165
L30187380 98154879
L30139761 98250117
L30092142 98297736
" />
</g><g transform="rotate(-90.000000 11320000.000000 65547499.000000)">
<text x="11320000.000000" y="66047499.000000"
textLength="3004524.000000" font-size="1333333.000000" lengthAdjust="spacingAndGlyphs"
text-anchor="middle" opacity="0">RV6</text>
</g>
<g class="stroked-text"><desc>RV6</desc>
<path d="M11772380 66142737
L11296190 66476070
" />
<path d="M11772380 66714165
L10772380 66714165
L10772380 66333213
L10820000 66237975
L10867619 66190356
L10962857 66142737
L11105714 66142737
L11200952 66190356
L11248571 66237975
L11296190 66333213
L11296190 66714165
" />
<path d="M10772380 65857022
L11772380 65523689
L10772380 65190356
" />
<path d="M10772380 64428451
L10772380 64618927
L10820000 64714165
L10867619 64761784
L11010476 64857022
L11200952 64904641
L11581904 64904641
L11677142 64857022
L11724761 64809403
L11772380 64714165
L11772380 64523689
L11724761 64428451
L11677142 64380832
L11581904 64333213
L11343809 64333213
L11248571 64380832
L11200952 64428451
L11153333 64523689
L11153333 64714165
L11200952 64809403
L11248571 64857022
L11343809 64904641
" />
</g><g transform="rotate(-90.000000 116432858.000000 83380000.000000)">
<text x="116432858.000000" y="83880000.000000"
textLength="3956905.000000" font-size="1333333.000000" lengthAdjust="spacingAndGlyphs"
text-anchor="middle" opacity="0">RV25</text>
</g>
<g class="stroked-text"><desc>RV25</desc>
<path d="M116885238 84451428
L116409048 84784761
" />
<path d="M116885238 85022857
L115885238 85022857
L115885238 84641904
L115932858 84546666
L115980477 84499047
L116075715 84451428
L116218572 84451428
L116313810 84499047
L116361429 84546666
L116409048 84641904
L116409048 85022857
" />
<path d="M115885238 84165714
L116885238 83832380
L115885238 83499047
" />
<path d="M115980477 83213333
L115932858 83165714
L115885238 83070476
L115885238 82832380
L115932858 82737142
L115980477 82689523
L116075715 82641904
L116170953 82641904
L116313810 82689523
L116885238 83260952
L116885238 82641904
" />
<path d="M115885238 81737142
L115885238 82213333
L116361429 82260952
L116313810 82213333
L116266191 82118095
L116266191 81880000
L116313810 81784761
L116361429 81737142
L116456667 81689523
L116694762 81689523
L116790000 81737142
L116837619 81784761
L116885238 81880000
L116885238 82118095
L116837619 82213333
L116790000 82260952
" />
</g><g transform="rotate(-90.000000 87637146.000000 36980000.000000)">
<text x="87637146.000000" y="37480000.000000"
textLength="3956905.000000" font-size="1333333.000000" lengthAdjust="spacingAndGlyphs"
text-anchor="middle" opacity="0">RV16</text>
</g>
<g class="stroked-text"><desc>RV16</desc>
<path d="M88089526 38051428
L87613336 38384761
" />
<path d="M88089526 38622857
L87089526 38622857
L87089526 38241904
L87137146 38146666
L87184765 38099047
L87280003 38051428
L87422860 38051428
L87518098 38099047
L87565717 38146666
L87613336 38241904
L87613336 38622857
" />
<path d="M87089526 37765714
L88089526 37432380
L87089526 37099047
" />
<path d="M88089526 36241904
L88089526 36813333
" />
<path d="M88089526 36527619
L87089526 36527619
L87232384 36622857
L87327622 36718095
L87375241 36813333
" />
<path d="M87089526 35384761
L87089526 35575238
L87137146 35670476
L87184765 35718095
L87327622 35813333
L87518098 35860952
L87899050 35860952
L87994288 35813333
L88041907 35765714
L88089526 35670476
L88089526 35480000
L88041907 35384761
L87994288 35337142
L87899050 35289523
L87660955 35289523
L87565717 35337142
L87518098 35384761
L87470479 35480000
L87470479 35670476
L87518098 35765714
L87565717 35813333
L87660955 35860952
" />
</g><g transform="rotate(-90.000000 193572138.000000 83380000.000000)">
<text x="193572138.000000" y="83880000.000000"
textLength="3956905.000000" font-size="1333333.000000" lengthAdjust="spacingAndGlyphs"
text-anchor="middle" opacity="0">RV30</text>
</g>
<g class="stroked-text"><desc>RV30</desc>
<path d="M194024518 84451428
L193548328 84784761
" />
<path d="M194024518 85022857
L193024518 85022857
L193024518 84641904
L193072138 84546666
L193119757 84499047
L193214995 84451428
L193357852 84451428
L193453090 84499047
L193500709 84546666
L193548328 84641904
L193548328 85022857
" />
<path d="M193024518 84165714
L194024518 83832380
L193024518 83499047
" />
<path d="M193024518 83260952
L193024518 82641904
L193405471 82975238
L193405471 82832380
L193453090 82737142
L193500709 82689523
L193595947 82641904
L193834042 82641904
L193929280 82689523
L193976899 82737142
L194024518 82832380
L194024518 83118095
L193976899 83213333
L193929280 83260952
" />
<path d="M193024518 82022857
L193024518 81927619
L193072138 81832380
L193119757 81784761
L193214995 81737142
L193405471 81689523
L193643566 81689523
L193834042 81737142
L193929280 81784761
L193976899 81832380
L194024518 81927619
L194024518 82022857
L193976899 82118095
L193929280 82165714
L193834042 82213333
L193643566 82260952
L193405471 82260952
L193214995 82213333
L193119757 82165714
L193072138 82118095
L193024518 82022857
" />
</g><g transform="rotate(-90.000000 48150000.000000 99369165.000000)">
<text x="48150000.000000" y="99869165.000000"
textLength="3956905.000000" font-size="1333333.000000" lengthAdjust="spacingAndGlyphs"
text-anchor="middle" opacity="0">RV14</text>
</g>
<g class="stroked-text"><desc>RV14</desc>
<path d="M48602380 100440593
L48126190 100773926
" />
<path d="M48602380 101012022
L47602380 101012022
L47602380 100631069
L47650000 100535831
L47697619 100488212
L47792857 100440593
L47935714 100440593
L48030952 100488212
L48078571 100535831
L48126190 100631069
L48126190 101012022
" />
<path d="M47602380 100154879
L48602380 99821545
L47602380 99488212
" />
<path d="M48602380 98631069
L48602380 99202498
" />
<path d="M48602380 98916784
L47602380 98916784
L47745238 99012022
L47840476 99107260
L47888095 99202498
" />
<path d="M47935714 97773926
L48602380 97773926
" />
<path d="M47554761 98012022
L48269047 98250117
L48269047 97631069
" />
</g><g transform="rotate(-90.000000 118492858.000000 36980000.000000)">
<text x="118492858.000000" y="37480000.000000"
textLength="3956905.000000" font-size="1333333.000000" lengthAdjust="spacingAndGlyphs"
text-anchor="middle" opacity="0">RV18</text>
</g>
<g class="stroked-text"><desc>RV18</desc>
<path d="M118945238 38051428
L118469048 38384761
" />
<path d="M118945238 38622857
L117945238 38622857
L117945238 38241904
L117992858 38146666
L118040477 38099047
L118135715 38051428
L118278572 38051428
L118373810 38099047
L118421429 38146666
L118469048 38241904
L118469048 38622857
" />
<path d="M117945238 37765714
L118945238 37432380
L117945238 37099047
" />
<path d="M118945238 36241904
L118945238 36813333
" />
<path d="M118945238 36527619
L117945238 36527619
L118088096 36622857
L118183334 36718095
L118230953 36813333
" />
<path d="M118373810 35670476
L118326191 35765714
L118278572 35813333
L118183334 35860952
L118135715 35860952
L118040477 35813333
L117992858 35765714
L117945238 35670476
L117945238 35480000
L117992858 35384761
L118040477 35337142
L118135715 35289523
L118183334 35289523
L118278572 35337142
L118326191 35384761
L118373810 35480000
L118373810 35670476
L118421429 35765714
L118469048 35813333
L118564286 35860952
L118754762 35860952
L118850000 35813333
L118897619 35765714
L118945238 35670476
L118945238 35480000
L118897619 35384761
L118850000 35337142
L118754762 35289523
L118564286 35289523
L118469048 35337142
L118421429 35384761
L118373810 35480000
" />
</g><g transform="rotate(-90.000000 29735000.000000 65547499.000000)">
<text x="29735000.000000" y="66047499.000000"
textLength="3004524.000000" font-size="1333333.000000" lengthAdjust="spacingAndGlyphs"
text-anchor="middle" opacity="0">RV7</text>
</g>
<g class="stroked-text"><desc>RV7</desc>
<path d="M30187380 66142737
L29711190 66476070
" />
<path d="M30187380 66714165
L29187380 66714165
L29187380 66333213
L29235000 66237975
L29282619 66190356
L29377857 66142737
L29520714 66142737
L29615952 66190356
L29663571 66237975
L29711190 66333213
L29711190 66714165
" />
<path d="M29187380 65857022
L30187380 65523689
L29187380 65190356
" />
<path d="M29187380 64952260
L29187380 64285594
L30187380 64714165
" />
</g></g>
<g style="fill:#000000; fill-opacity:0.0; 
stroke:#000000; stroke-width:120000.000000; stroke-opacity:1; 
stroke-linecap:round; stroke-linejoin:round;">
<path d="M22890000 87628332
L24489000 87628332
" />
<path d="M32830000 87628332
L32830000 83763332
" />
<path d="M28731000 87628332
L29490000 87628332
" />
<path d="M26231000 87628332
L26990000 87628332
" />
<path d="M22890000 79253332
L22890000 75388332
" />
<path d="M32830000 79253332
L32830000 75388332
" />
<path d="M22890000 87628332
L22890000 83763332
" />
<path d="M22890000 75388332
L32830000 75388332
" />
<path d="M31230000 87628332
L32830000 87628332
" />
<path d="M68610000 70717499
L70209000 70717499
" />
<path d="M68610000 58477499
L78550000 58477499
" />
<path d="M76950000 70717499
L78550000 70717499
" />
<path d="M78550000 70717499
L78550000 66852499
" />
<path d="M78550000 62342499
L78550000 58477499
" />
<path d="M71951000 70717499
L72710000 70717499
" />
<path d="M68610000 62342499
L68610000 58477499
" />
<path d="M68610000 70717499
L68610000 66852499
" />
<path d="M74451000 70717499
L75210000 70717499
" />
<path d="M167456426 42150000
L167456426 38285000
" />
<path d="M177396426 33775000
L177396426 29910000
" />
<path d="M170797426 42150000
L171556426 42150000
" />
<path d="M167456426 33775000
L167456426 29910000
" />
<path d="M167456426 42150000
L169055426 42150000
" />
<path d="M175796426 42150000
L177396426 42150000
" />
<path d="M177396426 42150000
L177396426 38285000
" />
<path d="M173297426 42150000
L174056426 42150000
" />
<path d="M167456426 29910000
L177396426 29910000
" />
<path d="M49645000 87628332
L51245000 87628332
" />
<path d="M41305000 75388332
L51245000 75388332
" />
<path d="M41305000 79253332
L41305000 75388332
" />
<path d="M51245000 87628332
L51245000 83763332
" />
<path d="M51245000 79253332
L51245000 75388332
" />
<path d="M41305000 87628332
L42904000 87628332
" />
<path d="M44646000 87628332
L45405000 87628332
" />
<path d="M41305000 87628332
L41305000 83763332
" />
<path d="M47146000 87628332
L47905000 87628332
" />
<path d="M204153144 42150000
L204912144 42150000
" />
<path d="M198312144 42150000
L199911144 42150000
" />
<path d="M208252144 42150000
L208252144 38285000
" />
<path d="M198312144 33775000
L198312144 29910000
" />
<path d="M208252144 33775000
L208252144 29910000
" />
<path d="M198312144 42150000
L198312144 38285000
" />
<path d="M198312144 29910000
L208252144 29910000
" />
<path d="M206652144 42150000
L208252144 42150000
" />
<path d="M201653144 42150000
L202412144 42150000
" />
<path d="M69025000 45431666
L69025000 41566666
" />
<path d="M59085000 45431666
L59085000 41566666
" />
<path d="M59085000 53806666
L59085000 49941666
" />
<path d="M62426000 53806666
L63185000 53806666
" />
<path d="M59085000 41566666
L69025000 41566666
" />
<path d="M59085000 53806666
L60684000 53806666
" />
<path d="M69025000 53806666
L69025000 49941666
" />
<path d="M64926000 53806666
L65685000 53806666
" />
<path d="M67425000 53806666
L69025000 53806666
" />
<path d="M136600714 42150000
L136600714 38285000
" />
<path d="M139941714 42150000
L140700714 42150000
" />
<path d="M136600714 29910000
L146540714 29910000
" />
<path d="M136600714 42150000
L138199714 42150000
" />
<path d="M146540714 42150000
L146540714 38285000
" />
<path d="M136600714 33775000
L136600714 29910000
" />
<path d="M146540714 33775000
L146540714 29910000
" />
<path d="M144940714 42150000
L146540714 42150000
" />
<path d="M142441714 42150000
L143200714 42150000
" />
<path d="M41305000 41566666
L51245000 41566666
" />
<path d="M41305000 45431666
L41305000 41566666
" />
<path d="M44646000 53806666
L45405000 53806666
" />
<path d="M51245000 53806666
L51245000 49941666
" />
<path d="M47146000 53806666
L47905000 53806666
" />
<path d="M51245000 45431666
L51245000 41566666
" />
<path d="M41305000 53806666
L42904000 53806666
" />
<path d="M49645000 53806666
L51245000 53806666
" />
<path d="M41305000 53806666
L41305000 49941666
" />
<path d="M141538570 53380000
L140788570 54130000
" />
<path d="M143288570 45455000
L143788570 44955000
" />
<path d="M142288570 112630000
L141538570 113380000
" />
<path d="M143788570 44955000
L142788570 44955000
" />
<path d="M136918570 45760000
L136918570 49145000
" />
<path d="M142113570 45760000
L140610570 45760000
" />
<path d="M136918570 117616000
L136918570 121000000
" />
<path d="M143038570 53380000
L140038570 53380000
" />
<path d="M146158570 116416000
L146158570 121000000
" />
<path d="M146158570 45760000
L146158570 50345000
" />
<path d="M142465570 121000000
L136918570 121000000
" />
<path d="M146158570 53616000
L146158570 113145000
" />
<path d="M146158570 45760000
L144463570 45760000
" />
<path d="M142288570 54130000
L141538570 53380000
" />
<path d="M143038570 113380000
L140038570 113380000
" />
<path d="M141538570 113380000
L140788570 112630000
" />
<path d="M142788570 44955000
L143288570 45455000
" />
<path d="M136918570 52416000
L136918570 114345000
" />
<path d="M146158570 121000000
L144111570 121000000
" />
<path d="M138965570 45760000
L136918570 45760000
" />
<path d="M141538570 53380000
L141538570 113380000
" />
<path d="M96755002 113380000
L93755002 113380000
" />
<path d="M97505002 44955000
L96505002 44955000
" />
<path d="M90635002 117616000
L90635002 121000000
" />
<path d="M96755002 53380000
L93755002 53380000
" />
<path d="M92682002 45760000
L90635002 45760000
" />
<path d="M95830002 45760000
L94327002 45760000
" />
<path d="M95255002 53380000
L94505002 54130000
" />
<path d="M95255002 53380000
L95255002 113380000
" />
<path d="M96005002 54130000
L95255002 53380000
" />
<path d="M99875002 53616000
L99875002 113145000
" />
<path d="M90635002 45760000
L90635002 49145000
" />
<path d="M90635002 52416000
L90635002 114345000
" />
<path d="M99875002 121000000
L97828002 121000000
" />
<path d="M96182002 121000000
L90635002 121000000
" />
<path d="M99875002 116416000
L99875002 121000000
" />
<path d="M99875002 45760000
L99875002 50345000
" />
<path d="M95255002 113380000
L94505002 112630000
" />
<path d="M96505002 44955000
L97005002 45455000
" />
<path d="M97005002 45455000
L97505002 44955000
" />
<path d="M96005002 112630000
L95255002 113380000
" />
<path d="M99875002 45760000
L98180002 45760000
" />
<path d="M182884282 42150000
L182884282 38285000
" />
<path d="M192824282 33775000
L192824282 29910000
" />
<path d="M182884282 29910000
L192824282 29910000
" />
<path d="M182884282 33775000
L182884282 29910000
" />
<path d="M188725282 42150000
L189484282 42150000
" />
<path d="M191224282 42150000
L192824282 42150000
" />
<path d="M182884282 42150000
L184483282 42150000
" />
<path d="M192824282 42150000
L192824282 38285000
" />
<path d="M186225282 42150000
L186984282 42150000
" />
<path d="M67425000 87628332
L69025000 87628332
" />
<path d="M59085000 79253332
L59085000 75388332
" />
<path d="M59085000 87628332
L60684000 87628332
" />
<path d="M69025000 87628332
L69025000 83763332
" />
<path d="M59085000 75388332
L69025000 75388332
" />
<path d="M59085000 87628332
L59085000 83763332
" />
<path d="M62426000 87628332
L63185000 87628332
" />
<path d="M64926000 87628332
L65685000 87628332
" />
<path d="M69025000 79253332
L69025000 75388332
" />
<path d="M121490714 52416000
L121490714 114345000
" />
<path d="M130730714 116416000
L130730714 121000000
" />
<path d="M123537714 45760000
L121490714 45760000
" />
<path d="M127860714 45455000
L128360714 44955000
" />
<path d="M126685714 45760000
L125182714 45760000
" />
<path d="M128360714 44955000
L127360714 44955000
" />
<path d="M126110714 53380000
L126110714 113380000
" />
<path d="M121490714 45760000
L121490714 49145000
" />
<path d="M130730714 53616000
L130730714 113145000
" />
<path d="M126110714 113380000
L125360714 112630000
" />
<path d="M130730714 121000000
L128683714 121000000
" />
<path d="M127037714 121000000
L121490714 121000000
" />
<path d="M127360714 44955000
L127860714 45455000
" />
<path d="M130730714 45760000
L129035714 45760000
" />
<path d="M130730714 45760000
L130730714 50345000
" />
<path d="M127610714 53380000
L124610714 53380000
" />
<path d="M126860714 112630000
L126110714 113380000
" />
<path d="M126110714 53380000
L125360714 54130000
" />
<path d="M127610714 113380000
L124610714 113380000
" />
<path d="M126860714 54130000
L126110714 53380000
" />
<path d="M121490714 117616000
L121490714 121000000
" />
<path d="M114085002 42150000
L115685002 42150000
" />
<path d="M115685002 33775000
L115685002 29910000
" />
<path d="M109086002 42150000
L109845002 42150000
" />
<path d="M115685002 42150000
L115685002 38285000
" />
<path d="M105745002 29910000
L115685002 29910000
" />
<path d="M105745002 42150000
L107344002 42150000
" />
<path d="M111586002 42150000
L112345002 42150000
" />
<path d="M105745002 33775000
L105745002 29910000
" />
<path d="M105745002 42150000
L105745002 38285000
" />
<path d="M47146000 20235000
L47905000 20235000
" />
<path d="M41305000 20235000
L41305000 16370000
" />
<path d="M41305000 20235000
L42904000 20235000
" />
<path d="M51245000 11860000
L51245000 7995000
" />
<path d="M49645000 20235000
L51245000 20235000
" />
<path d="M44646000 20235000
L45405000 20235000
" />
<path d="M51245000 20235000
L51245000 16370000
" />
<path d="M41305000 11860000
L41305000 7995000
" />
<path d="M41305000 7995000
L51245000 7995000
" />
<path d="M22890000 53806666
L24489000 53806666
" />
<path d="M31230000 53806666
L32830000 53806666
" />
<path d="M22890000 53806666
L22890000 49941666
" />
<path d="M32830000 53806666
L32830000 49941666
" />
<path d="M26231000 53806666
L26990000 53806666
" />
<path d="M22890000 45431666
L22890000 41566666
" />
<path d="M32830000 45431666
L32830000 41566666
" />
<path d="M22890000 41566666
L32830000 41566666
" />
<path d="M28731000 53806666
L29490000 53806666
" />
<path d="M157869570 42150000
L158628570 42150000
" />
<path d="M152028570 42150000
L153627570 42150000
" />
<path d="M152028570 33775000
L152028570 29910000
" />
<path d="M161968570 42150000
L161968570 38285000
" />
<path d="M152028570 42150000
L152028570 38285000
" />
<path d="M155369570 42150000
L156128570 42150000
" />
<path d="M160368570 42150000
L161968570 42150000
" />
<path d="M161968570 33775000
L161968570 29910000
" />
<path d="M152028570 29910000
L161968570 29910000
" />
<path d="M50830000 70717499
L50830000 66852499
" />
<path d="M60770000 62342499
L60770000 58477499
" />
<path d="M56671000 70717499
L57430000 70717499
" />
<path d="M59170000 70717499
L60770000 70717499
" />
<path d="M50830000 62342499
L50830000 58477499
" />
<path d="M50830000 58477499
L60770000 58477499
" />
<path d="M54171000 70717499
L54930000 70717499
" />
<path d="M50830000 70717499
L52429000 70717499
" />
<path d="M60770000 70717499
L60770000 66852499
" />
<path d="M44646000 121200000
L45405000 121200000
" />
<path d="M51245000 112825000
L51245000 108960000
" />
<path d="M41305000 121200000
L42904000 121200000
" />
<path d="M41305000 108960000
L51245000 108960000
" />
<path d="M51245000 121200000
L51245000 117335000
" />
<path d="M41305000 121200000
L41305000 117335000
" />
<path d="M41305000 112825000
L41305000 108960000
" />
<path d="M47146000 121200000
L47905000 121200000
" />
<path d="M49645000 121200000
L51245000 121200000
" />
<path d="M32415000 28520833
L32415000 24655833
" />
<path d="M32415000 24655833
L42355000 24655833
" />
<path d="M42355000 36895833
L42355000 33030833
" />
<path d="M32415000 36895833
L34014000 36895833
" />
<path d="M35756000 36895833
L36515000 36895833
" />
<path d="M42355000 28520833
L42355000 24655833
" />
<path d="M40755000 36895833
L42355000 36895833
" />
<path d="M32415000 36895833
L32415000 33030833
" />
<path d="M38256000 36895833
L39015000 36895833
" />
<path d="M161586426 116416000
L161586426 121000000
" />
<path d="M161586426 45760000
L159891426 45760000
" />
<path d="M152346426 45760000
L152346426 49145000
" />
<path d="M156966426 53380000
L156966426 113380000
" />
<path d="M161586426 53616000
L161586426 113145000
" />
<path d="M159216426 44955000
L158216426 44955000
" />
<path d="M157541426 45760000
L156038426 45760000
" />
<path d="M157716426 54130000
L156966426 53380000
" />
<path d="M152346426 117616000
L152346426 121000000
" />
<path d="M152346426 52416000
L152346426 114345000
" />
<path d="M161586426 45760000
L161586426 50345000
" />
<path d="M158466426 53380000
L155466426 53380000
" />
<path d="M156966426 113380000
L156216426 112630000
" />
<path d="M158466426 113380000
L155466426 113380000
" />
<path d="M156966426 53380000
L156216426 54130000
" />
<path d="M158716426 45455000
L159216426 44955000
" />
<path d="M157716426 112630000
L156966426 113380000
" />
<path d="M161586426 121000000
L159539426 121000000
" />
<path d="M158216426 44955000
L158716426 45455000
" />
<path d="M154393426 45760000
L152346426 45760000
" />
<path d="M157893426 121000000
L152346426 121000000
" />
<path d="M59170000 36895833
L60770000 36895833
" />
<path d="M50830000 28520833
L50830000 24655833
" />
<path d="M60770000 36895833
L60770000 33030833
" />
<path d="M50830000 24655833
L60770000 24655833
" />
<path d="M50830000 36895833
L50830000 33030833
" />
<path d="M60770000 28520833
L60770000 24655833
" />
<path d="M54171000 36895833
L54930000 36895833
" />
<path d="M50830000 36895833
L52429000 36895833
" />
<path d="M56671000 36895833
L57430000 36895833
" />
<path d="M172969282 45760000
L171466282 45760000
" />
<path d="M174644282 44955000
L173644282 44955000
" />
<path d="M177014282 121000000
L174967282 121000000
" />
<path d="M173144282 112630000
L172394282 113380000
" />
<path d="M167774282 117616000
L167774282 121000000
" />
<path d="M173144282 54130000
L172394282 53380000
" />
<path d="M167774282 52416000
L167774282 114345000
" />
<path d="M177014282 116416000
L177014282 121000000
" />
<path d="M173321282 121000000
L167774282 121000000
" />
<path d="M172394282 113380000
L171644282 112630000
" />
<path d="M177014282 45760000
L175319282 45760000
" />
<path d="M173894282 113380000
L170894282 113380000
" />
<path d="M172394282 53380000
L172394282 113380000
" />
<path d="M177014282 53616000
L177014282 113145000
" />
<path d="M169821282 45760000
L167774282 45760000
" />
<path d="M174144282 45455000
L174644282 44955000
" />
<path d="M167774282 45760000
L167774282 49145000
" />
<path d="M177014282 45760000
L177014282 50345000
" />
<path d="M173644282 44955000
L174144282 45455000
" />
<path d="M172394282 53380000
L171644282 54130000
" />
<path d="M173894282 53380000
L170894282 53380000
" />
<path d="M198630000 52416000
L198630000 114345000
" />
<path d="M207870000 116416000
L207870000 121000000
" />
<path d="M207870000 45760000
L207870000 50345000
" />
<path d="M204000000 54130000
L203250000 53380000
" />
<path d="M204500000 44955000
L205000000 45455000
" />
<path d="M203250000 113380000
L202500000 112630000
" />
<path d="M198630000 117616000
L198630000 121000000
" />
<path d="M204750000 53380000
L201750000 53380000
" />
<path d="M205500000 44955000
L204500000 44955000
" />
<path d="M204750000 113380000
L201750000 113380000
" />
<path d="M198630000 45760000
L198630000 49145000
" />
<path d="M200677000 45760000
L198630000 45760000
" />
<path d="M207870000 45760000
L206175000 45760000
" />
<path d="M203825000 45760000
L202322000 45760000
" />
<path d="M203250000 53380000
L202500000 54130000
" />
<path d="M203250000 53380000
L203250000 113380000
" />
<path d="M205000000 45455000
L205500000 44955000
" />
<path d="M207870000 53616000
L207870000 113145000
" />
<path d="M207870000 121000000
L205823000 121000000
" />
<path d="M204177000 121000000
L198630000 121000000
" />
<path d="M204000000 112630000
L203250000 113380000
" />
<path d="M32415000 96164165
L32415000 92299165
" />
<path d="M40755000 104539165
L42355000 104539165
" />
<path d="M42355000 96164165
L42355000 92299165
" />
<path d="M32415000 104539165
L34014000 104539165
" />
<path d="M32415000 92299165
L42355000 92299165
" />
<path d="M38256000 104539165
L39015000 104539165
" />
<path d="M32415000 104539165
L32415000 100674165
" />
<path d="M35756000 104539165
L36515000 104539165
" />
<path d="M42355000 104539165
L42355000 100674165
" />
<path d="M23940000 70717499
L23940000 66852499
" />
<path d="M14000000 58477499
L23940000 58477499
" />
<path d="M17341000 70717499
L18100000 70717499
" />
<path d="M14000000 62342499
L14000000 58477499
" />
<path d="M22340000 70717499
L23940000 70717499
" />
<path d="M19841000 70717499
L20600000 70717499
" />
<path d="M23940000 62342499
L23940000 58477499
" />
<path d="M14000000 70717499
L14000000 66852499
" />
<path d="M14000000 70717499
L15599000 70717499
" />
<path d="M115302858 45760000
L113607858 45760000
" />
<path d="M106062858 52416000
L106062858 114345000
" />
<path d="M112182858 113380000
L109182858 113380000
" />
<path d="M110682858 53380000
L110682858 113380000
" />
<path d="M110682858 113380000
L109932858 112630000
" />
<path d="M108109858 45760000
L106062858 45760000
" />
<path d="M110682858 53380000
L109932858 54130000
" />
<path d="M112432858 45455000
L112932858 44955000
" />
<path d="M115302858 121000000
L113255858 121000000
" />
<path d="M115302858 116416000
L115302858 121000000
" />
<path d="M106062858 45760000
L106062858 49145000
" />
<path d="M112932858 44955000
L111932858 44955000
" />
<path d="M115302858 45760000
L115302858 50345000
" />
<path d="M111609858 121000000
L106062858 121000000
" />
<path d="M111432858 54130000
L110682858 53380000
" />
<path d="M111257858 45760000
L109754858 45760000
" />
<path d="M115302858 53616000
L115302858 113145000
" />
<path d="M111932858 44955000
L112432858 45455000
" />
<path d="M106062858 117616000
L106062858 121000000
" />
<path d="M112182858 53380000
L109182858 53380000
" />
<path d="M111432858 112630000
L110682858 113380000
" />
<path d="M100257146 42150000
L100257146 38285000
" />
<path d="M90317146 29910000
L100257146 29910000
" />
<path d="M90317146 33775000
L90317146 29910000
" />
<path d="M90317146 42150000
L91916146 42150000
" />
<path d="M90317146 42150000
L90317146 38285000
" />
<path d="M100257146 33775000
L100257146 29910000
" />
<path d="M93658146 42150000
L94417146 42150000
" />
<path d="M96158146 42150000
L96917146 42150000
" />
<path d="M98657146 42150000
L100257146 42150000
" />
<path d="M188749138 121000000
L183202138 121000000
" />
<path d="M187822138 53380000
L187072138 54130000
" />
<path d="M185249138 45760000
L183202138 45760000
" />
<path d="M183202138 45760000
L183202138 49145000
" />
<path d="M187822138 53380000
L187822138 113380000
" />
<path d="M183202138 117616000
L183202138 121000000
" />
<path d="M192442138 45760000
L190747138 45760000
" />
<path d="M189572138 45455000
L190072138 44955000
" />
<path d="M188397138 45760000
L186894138 45760000
" />
<path d="M190072138 44955000
L189072138 44955000
" />
<path d="M192442138 53616000
L192442138 113145000
" />
<path d="M192442138 45760000
L192442138 50345000
" />
<path d="M188572138 112630000
L187822138 113380000
" />
<path d="M192442138 121000000
L190395138 121000000
" />
<path d="M183202138 52416000
L183202138 114345000
" />
<path d="M189072138 44955000
L189572138 45455000
" />
<path d="M189322138 53380000
L186322138 53380000
" />
<path d="M187822138 113380000
L187072138 112630000
" />
<path d="M192442138 116416000
L192442138 121000000
" />
<path d="M189322138 113380000
L186322138 113380000
" />
<path d="M188572138 54130000
L187822138 53380000
" />
<path d="M50830000 104539165
L50830000 100674165
" />
<path d="M54171000 104539165
L54930000 104539165
" />
<path d="M60770000 96164165
L60770000 92299165
" />
<path d="M60770000 104539165
L60770000 100674165
" />
<path d="M50830000 96164165
L50830000 92299165
" />
<path d="M59170000 104539165
L60770000 104539165
" />
<path d="M50830000 92299165
L60770000 92299165
" />
<path d="M56671000 104539165
L57430000 104539165
" />
<path d="M50830000 104539165
L52429000 104539165
" />
<path d="M121172858 42150000
L121172858 38285000
" />
<path d="M131112858 42150000
L131112858 38285000
" />
<path d="M127013858 42150000
L127772858 42150000
" />
<path d="M131112858 33775000
L131112858 29910000
" />
<path d="M124513858 42150000
L125272858 42150000
" />
<path d="M121172858 42150000
L122771858 42150000
" />
<path d="M121172858 29910000
L131112858 29910000
" />
<path d="M129512858 42150000
L131112858 42150000
" />
<path d="M121172858 33775000
L121172858 29910000
" />
<path d="M42355000 70717499
L42355000 66852499
" />
<path d="M40755000 70717499
L42355000 70717499
" />
<path d="M35756000 70717499
L36515000 70717499
" />
<path d="M38256000 70717499
L39015000 70717499
" />
<path d="M42355000 62342499
L42355000 58477499
" />
<path d="M32415000 58477499
L42355000 58477499
" />
<path d="M32415000 70717499
L32415000 66852499
" />
<path d="M32415000 70717499
L34014000 70717499
" />
<path d="M32415000 62342499
L32415000 58477499
" />
<g >
</g>
<g >
</g>
<g >
</g>
<g >
</g>
<g >
</g>
<g >
</g>
<g >
</g>
<g >
</g>
<g >
</g>
<g >
</g>
<g >
</g>
<g >
</g>
<g >
</g>
<g >
</g>
<g >
</g>
<g >
</g>
<g >
</g>
<g >
</g>
<g >
</g>
<g >
</g>
<g >
</g>
<g >
</g>
<g >
</g>
<g >
</g>
<g >
</g>
<g >
</g>
<g >
</g>
<g >
</g>
<g >
</g>
<g >
</g>
<g >
</g>
<g >
</g>
<g >
</g>
<g >
</g>
<g >
</g>
<g >
</g>
<g >
</g>
<g >
</g>
<g >
</g>
<g >
</g>
<g >
</g>
<g >
</g>
<g >
</g>
<g >
</g>
<g >
</g>
<g >
</g>
</g> 
</svg>
